<?xml version="1.0" encoding="utf-8"?>
<!-- Generator: Adobe Illustrator 17.0.0, SVG Export Plug-In . SVG Version: 6.00 Build 0)  -->
<!DOCTYPE svg PUBLIC "-//W3C//DTD SVG 1.1//EN" "http://www.w3.org/Graphics/SVG/1.1/DTD/svg11.dtd">
<svg version="1.1" id="Слой_1" xmlns="http://www.w3.org/2000/svg" xmlns:xlink="http://www.w3.org/1999/xlink" x="0px" y="0px"
	 width="100px" height="100px" viewBox="0 0 100 100" enable-background="new 0 0 100 100" xml:space="preserve">
<path fill="#767676" d="M49.865,91.747c-1.578-0.22-3.171-0.361-4.73-0.672c-17.004-3.392-28.317-13.357-32.979-30.015
	c-6.201-22.154,7.087-44.709,29.334-50.614c2.389-0.634,4.898-0.816,7.349-1.214C49.184,9.176,49.523,9.078,49.865,9
	c1.354,0,2.708,0,4.062,0c0.343,0.077,0.682,0.178,1.028,0.228c2.07,0.303,4.169,0.472,6.209,0.911
	c15.969,3.434,29.016,17.308,31.433,33.365c0.242,1.61,0.448,3.225,0.671,4.838c0,1.354,0,2.708,0,4.062
	c-0.077,0.379-0.165,0.756-0.23,1.138c-0.427,2.515-0.584,5.111-1.315,7.535c-5,16.597-16.04,26.632-33.069,30.007
	c-1.559,0.309-3.152,0.446-4.729,0.663C52.573,91.747,51.219,91.747,49.865,91.747z M63.363,57.152c-0.007,0-0.015,0-0.022,0
	c0-4.097-0.016-8.195,0.024-12.292c0.004-0.428,0.234-1.007,0.556-1.224c0.204-0.137,0.851,0.179,1.162,0.449
	c0.751,0.652,1.423,1.396,2.125,2.106c1.083,1.095,1.422,1.065,2.502-0.051c1.109-1.146,2.261-2.25,3.408-3.359
	c0.44-0.425,0.386-1.355-0.125-1.767c-0.442-0.356-0.904-0.694-1.305-1.092c-2.352-2.334-4.723-4.649-7.012-7.043
	c-0.953-0.996-2.103-1.54-3.329-2.036c-1.02-0.412-1.833-0.232-2.592,0.585c-1.09,1.174-2.26,2.274-3.374,3.427
	c-0.509,0.526-1.012,0.662-1.716,0.345c-1.165-0.525-1.643-0.145-1.586,1.142c0.045,1.031,0.077,2.064,0.091,3.096
	c0.008,0.557-0.073,1.21-0.786,1.109c-0.281-0.04-0.642-0.686-0.674-1.08c-0.087-1.097-0.005-2.207-0.019-3.311
	c-0.014-1.138-0.332-1.381-1.348-0.939c-0.784,0.341-1.361,0.148-1.914-0.425c-1.062-1.102-2.141-2.189-3.213-3.281
	c-1.011-1.031-1.501-1.061-2.864-0.623c-1.753,0.564-2.918,1.838-4.148,3.076c-2.31,2.324-4.656,4.613-6.979,6.924
	c-0.822,0.817-0.786,1.326,0.025,2.036c1.231,1.079,2.444,2.179,3.645,3.292c0.807,0.748,1.411,0.741,2.182-0.073
	c0.685-0.724,1.349-1.473,2.088-2.139c0.276-0.248,0.817-0.484,1.093-0.371c0.283,0.115,0.419,0.652,0.562,1.026
	c0.071,0.187,0.012,0.423,0.012,0.637c-0.008,7.946-0.017,15.891-0.021,23.837c-0.001,1.563,0.144,1.702,1.707,1.703
	c6.698,0.003,13.397,0.003,20.096,0.001c1.706,0,1.749-0.045,1.75-1.713C63.363,65.133,63.363,61.142,63.363,57.152z M58.872,28.963
	c-0.357-0.434-0.589-0.967-0.967-1.106c-0.375-0.138-1.026-0.028-1.328,0.235c-1.044,0.909-1.994,1.927-2.971,2.913
	c-0.557,0.562-0.853,1.184-0.186,1.854c0.641,0.642,1.341,0.577,2.046-0.126c0.881-0.878,1.784-1.735,2.645-2.632
	C58.39,29.811,58.568,29.426,58.872,28.963z M44.428,28.917c0.134,0.386,0.149,0.682,0.304,0.834
	c1.133,1.116,2.248,2.26,3.479,3.259c0.295,0.239,1.11,0.138,1.496-0.106c0.589-0.372,0.565-1.1,0.093-1.585
	c-1.085-1.116-2.219-2.19-3.397-3.206c-0.255-0.219-0.852-0.274-1.166-0.13C44.884,28.144,44.672,28.616,44.428,28.917z
	 M51.499,26.967c0,0.006,0,0.012,0,0.018c-0.676,0-1.357-0.05-2.027,0.013c-0.818,0.077-1.083,0.618-0.585,1.241
	c0.573,0.717,1.186,1.436,1.909,1.986c0.328,0.249,1.108,0.297,1.433,0.074c0.748-0.515,1.376-1.224,1.981-1.917
	c0.193-0.221,0.309-0.712,0.192-0.944c-0.123-0.242-0.559-0.418-0.875-0.45C52.856,26.92,52.175,26.967,51.499,26.967z"/>
</svg>
