<?xml version="1.0" encoding="utf-8"?>
<!-- Generator: Adobe Illustrator 17.0.0, SVG Export Plug-In . SVG Version: 6.00 Build 0)  -->
<!DOCTYPE svg PUBLIC "-//W3C//DTD SVG 1.1//EN" "http://www.w3.org/Graphics/SVG/1.1/DTD/svg11.dtd">
<svg version="1.1" id="Слой_1" xmlns="http://www.w3.org/2000/svg" xmlns:xlink="http://www.w3.org/1999/xlink" x="0px" y="0px"
	 width="100px" height="100px" viewBox="0 0 100 100" enable-background="new 0 0 100 100" xml:space="preserve">
<path fill="#767676" d="M52.405,9c1.577,0.22,3.171,0.361,4.73,0.672c17.005,3.392,28.316,13.358,32.98,30.014
	c6.203,22.152-7.078,44.694-29.334,50.615c-2.355,0.626-4.826,0.812-7.243,1.208c-0.38,0.062-0.756,0.158-1.133,0.238
	c-1.354,0-2.708,0-4.062,0c-0.343-0.077-0.683-0.171-1.029-0.229c-2.655-0.449-5.403-0.596-7.953-1.385
	C22.935,85.052,13.008,74.026,9.667,57.135c-0.309-1.56-0.448-3.153-0.667-4.73c0-1.354,0-2.708,0-4.062
	c0.075-0.344,0.195-0.684,0.219-1.031c0.432-6.466,2.291-12.507,5.664-18.022c6.6-10.791,16.143-17.375,28.625-19.614
	c1.6-0.287,3.222-0.453,4.834-0.675C49.696,9,51.05,9,52.405,9z M50.6,27.966c-3.849,0-7.697,0.013-11.545-0.01
	c-0.933-0.006-1.634,0.243-2.136,1.099c-0.611,1.041-1.296,2.043-2.001,3.025c-1.944,2.708-3.92,5.393-5.867,8.099
	c-0.133,0.185-0.129,0.468-0.192,0.705c-0.397,1.492,0.659,2.345,1.462,3.304c2.326,2.779,6.019,2.934,8.507,0.298
	c0.694-0.735,1.104-0.741,1.778,0.02c2.193,2.474,5.854,2.478,8.15,0.075c0.923-0.966,0.928-0.966,1.904,0.016
	c2.375,2.387,5.874,2.378,8.164-0.1c0.651-0.705,1.072-0.747,1.716-0.058c3.447,3.687,8.316,1.618,9.675-2.214
	c0.219-0.618,0.174-1.528-0.13-2.1c-1.936-3.642-4.018-7.207-5.964-10.844c-0.563-1.051-1.294-1.342-2.403-1.329
	C58.012,27.996,54.306,27.968,50.6,27.966z M49.412,69.31c4.773,0,9.546-0.005,14.319,0.002c2.332,0.003,2.993-0.619,2.999-2.952
	c0.014-5.557,0.013-11.114,0.011-16.67c-0.001-1.467-0.352-1.723-1.828-1.502c-1.725,0.258-3.328-0.033-4.72-1.172
	c-1.041-0.851-1.349-0.839-2.4,0.02c-2.062,1.685-5.618,1.696-7.622-0.063c-0.807-0.708-1.458-0.693-2.254-0.058
	c-2.343,1.869-5.545,1.841-7.833-0.075c-0.696-0.582-1.369-0.622-2.009-0.037c-1.305,1.193-2.819,1.554-4.541,1.382
	c-1.029-0.103-1.529,0.39-1.556,1.435c-0.019,0.746,0.063,1.494,0.064,2.241c0.005,4.916-0.011,9.831,0.006,14.747
	c0.007,1.981,0.769,2.706,2.725,2.705C39.652,69.311,44.532,69.311,49.412,69.31z"/>
<path fill="#767676" d="M43.532,51.931c1.067,0,2.134,0.024,3.2-0.008c0.795-0.024,1.186,0.26,1.176,1.106
	c-0.025,2.169-0.015,4.338-0.004,6.507c0.004,0.807-0.334,1.132-1.168,1.117c-2.167-0.039-4.335-0.031-6.503,0.007
	c-0.876,0.015-1.221-0.333-1.209-1.197c0.029-2.167,0.028-4.334,0.012-6.502c-0.006-0.768,0.301-1.102,1.084-1.078
	c1.136,0.034,2.275,0.009,3.412,0.009C43.532,51.904,43.532,51.918,43.532,51.931z"/>
<path fill="#767676" d="M51.487,56.086c0-0.995,0.05-1.993-0.015-2.984c-0.059-0.901,0.349-1.241,1.176-1.24
	c2.131,0.002,4.262,0.013,6.393,0.005c0.877-0.003,1.284,0.344,1.264,1.281c-0.043,2.061-0.042,4.124,0.009,6.185
	c0.025,0.997-0.424,1.325-1.342,1.318c-2.06-0.015-4.12-0.015-6.18,0.016c-0.907,0.013-1.304-0.373-1.284-1.275
	c0.025-1.102,0.006-2.204,0.006-3.306C51.505,56.087,51.496,56.087,51.487,56.086z"/>
</svg>
