<?xml version="1.0" encoding="utf-8"?>
<!-- Generator: Adobe Illustrator 17.0.0, SVG Export Plug-In . SVG Version: 6.00 Build 0)  -->
<!DOCTYPE svg PUBLIC "-//W3C//DTD SVG 1.1//EN" "http://www.w3.org/Graphics/SVG/1.1/DTD/svg11.dtd">
<svg version="1.1" id="Слой_1" xmlns="http://www.w3.org/2000/svg" xmlns:xlink="http://www.w3.org/1999/xlink" x="0px" y="0px"
	 width="100px" height="100px" viewBox="0 0 100 100" enable-background="new 0 0 100 100" xml:space="preserve">
<path fill="#767676" d="M48.079,91.747c-1.54-0.218-3.085-0.409-4.62-0.658c-16.227-2.636-29.414-14.855-33.341-30.88
	c-5.139-20.97,6.822-42.459,27.337-49.103c3.122-1.011,6.314-1.685,9.599-1.881C47.399,9.204,47.737,9.077,48.079,9
	c1.354,0,2.708,0,4.062,0c1.615,0.22,3.234,0.412,4.844,0.664c15.931,2.494,29.249,14.727,33.192,30.479
	c5.728,22.88-8.395,45.66-31.422,50.63c-1.764,0.381-3.587,0.491-5.38,0.74c-0.344,0.048-0.68,0.155-1.02,0.234
	C50.93,91.747,49.504,91.747,48.079,91.747z M50.327,66.93c4.88,0,9.759,0.005,14.639-0.002c2.862-0.004,4.725-1.893,4.724-4.76
	c-0.003-6.34-0.124-12.683,0.053-19.018c0.076-2.726-2.145-5.206-5.087-5.152c-8.581,0.159-17.167,0.071-25.75,0.047
	c-0.835-0.002-1.683-0.189-2.495-0.402c-0.254-0.067-0.412-0.501-0.614-0.767c0.27-0.135,0.532-0.365,0.811-0.388
	c1.098-0.092,2.207-0.072,3.304-0.178c4.674-0.448,9.344-0.935,14.018-1.389c3.47-0.338,6.945-0.619,10.409-1.004
	c0.471-0.052,1.269-0.57,1.268-0.869c-0.006-1.204-0.019-2.519-0.501-3.579c-0.508-1.118-1.807-0.907-2.883-0.709
	c-3.185,0.585-6.364,1.204-9.553,1.767c-5.886,1.04-11.779,2.046-17.667,3.077c-1.968,0.345-3.91,2.172-3.874,4.648
	C31.243,46.3,31.174,54.35,31.17,62.4c-0.001,2.802,1.715,4.531,4.518,4.531C40.568,66.931,45.447,66.931,50.327,66.93z"/>
<path fill="#767676" d="M65.196,52.481c0.003,1.414-1.154,2.566-2.587,2.576c-1.217,0.009-2.568-1.337-2.562-2.551
	c0.007-1.276,1.255-2.543,2.535-2.574C63.951,49.899,65.193,51.11,65.196,52.481z"/>
</svg>
