<?xml version="1.0" encoding="utf-8"?>
<!-- Generator: Adobe Illustrator 17.0.0, SVG Export Plug-In . SVG Version: 6.00 Build 0)  -->
<!DOCTYPE svg PUBLIC "-//W3C//DTD SVG 1.1//EN" "http://www.w3.org/Graphics/SVG/1.1/DTD/svg11.dtd">
<svg version="1.1" id="Слой_1" xmlns="http://www.w3.org/2000/svg" xmlns:xlink="http://www.w3.org/1999/xlink" x="0px" y="0px"
	 width="100px" height="100px" viewBox="0 0 100 100" enable-background="new 0 0 100 100" xml:space="preserve">
<path fill="#767676" d="M51.997,9c1.579,0.218,3.162,0.408,4.735,0.66c16.533,2.644,29.951,15.386,33.528,31.825
	c4.657,21.401-7.906,42.537-28.965,48.557c-2.745,0.785-5.651,1.002-8.482,1.489c-0.276,0.047-0.544,0.143-0.815,0.216
	c-1.354,0-2.708,0-4.062,0c-1.577-0.219-3.158-0.411-4.73-0.661C27.016,88.512,13.792,76.208,9.882,60.093
	C4.733,38.87,17.089,17.124,37.927,10.93c2.905-0.863,5.981-1.149,8.978-1.705C47.25,9.161,47.591,9.076,47.934,9
	C49.288,9,50.642,9,51.997,9z M40.762,36.082c0-0.015,0-0.031,0-0.046c-4.666,0-9.331,0-13.997,0c-1.308,0-1.731,0.445-1.732,1.849
	c-0.003,6.699-0.003,13.398,0,20.097c0.001,1.269,0.543,1.827,1.812,1.839c0.64,0.006,1.28-0.072,1.921-0.079
	c1.699-0.018,1.856,0.147,1.81,1.798c-0.009,0.32-0.001,0.641,0.002,0.962c0.008,0.722,0.378,1.138,1.088,1.21
	c0.729,0.074,1.212-0.212,1.43-0.969c0.574-1.995,1.743-2.995,3.47-3.033c2.278-0.049,3.597,0.805,4.282,2.899
	c0.286,0.874,0.814,1.148,1.669,1.146c6.699-0.015,13.398-0.02,20.097-0.003c0.944,0.002,1.491-0.243,1.737-1.279
	c0.446-1.879,2.509-3.404,4.332-3.386c1.799,0.018,3.685,1.456,4.22,3.217c0.404,1.33,0.939,1.62,2.629,1.424
	c1.101-0.127,1.68-0.729,1.7-1.946c0.038-2.28,0.014-4.561,0.012-6.841c-0.001-0.925-0.402-1.538-1.325-1.829
	c-1.585-0.498-3.19-0.964-4.715-1.612c-0.649-0.276-1.318-0.878-1.629-1.505c-0.725-1.46-1.149-3.069-1.859-4.538
	c-1.007-2.085-1.037-2.101-3.107-2.09c-1.639,0.009-3.278,0.002-4.917,0.02c-1.696,0.018-2.137,0.456-2.151,2.179
	c-0.018,2.387-0.01,4.775-0.007,7.162c0.001,0.891,0.09,1.789-0.003,2.669c-0.046,0.435-0.413,0.836-0.635,1.253
	c-0.206-0.394-0.416-0.786-0.614-1.184c-0.028-0.057-0.002-0.14-0.002-0.212c0.012-5.772,0.025-11.545,0.036-17.317
	c0.003-1.582-0.276-1.857-1.875-1.857C49.881,36.082,45.321,36.082,40.762,36.082z M68.623,66.533
	c1.615,0.013,3.144-1.401,3.182-2.943c0.039-1.596-1.497-3.126-3.143-3.129c-1.732-0.004-3.131,1.393-3.118,3.112
	C65.557,65.281,66.844,66.518,68.623,66.533z M36.968,66.529c1.655,0.002,3.012-1.262,3.019-2.811
	c0.008-1.774-1.323-3.168-3.044-3.188c-1.698-0.02-3.057,1.435-3.063,3.28C33.875,65.316,35.25,66.527,36.968,66.529z"/>
<path fill="#767676" d="M64.413,51.299c-0.604,0.001-1.208,0.01-1.812,0c-0.945-0.015-1.315-0.569-1.322-1.446
	c-0.007-0.85-0.004-1.7-0.017-2.55c-0.017-1.182,0.498-1.69,1.683-1.639c0.142,0.006,0.283,0.026,0.425,0.035
	c2.177,0.129,2.494,0.388,3.166,2.475c0.161,0.502,0.386,0.986,0.615,1.463c0.483,1.002,0.17,1.595-0.926,1.655
	C65.623,51.325,65.017,51.298,64.413,51.299z"/>
</svg>
