<?xml version="1.0" encoding="utf-8"?>
<!-- Generator: Adobe Illustrator 17.0.0, SVG Export Plug-In . SVG Version: 6.00 Build 0)  -->
<!DOCTYPE svg PUBLIC "-//W3C//DTD SVG 1.1//EN" "http://www.w3.org/Graphics/SVG/1.1/DTD/svg11.dtd">
<svg version="1.1" id="Слой_1" xmlns="http://www.w3.org/2000/svg" xmlns:xlink="http://www.w3.org/1999/xlink" x="0px" y="0px"
	 width="100px" height="100px" viewBox="0 0 100 100" enable-background="new 0 0 100 100" xml:space="preserve">
<g id="MvhHXT.tif">
	<g>
		<path fill="#767676" d="M25.886,43.568c0-0.256,0-0.512,0-0.768c0.106-0.55,0.245-1.095,0.313-1.649
			c1.012-8.346,5.373-14.319,12.947-17.841c2.099-0.976,4.471-1.365,6.717-2.023c1.537,0,3.073,0,4.61,0
			c0.413,0.129,0.818,0.308,1.242,0.381c4.888,0.842,9.09,3.011,12.441,6.662c5.297,5.773,8.995,14.947,2.692,25.236
			C63.088,59.701,58.69,65.453,54.42,71.26c-1.84,2.502-4.082,4.708-6.422,7.368C39.122,67.638,28.77,58.003,25.886,43.568z
			 M48.062,32.755c-5.649,0.017-10.266,4.641-10.243,10.259c0.023,5.619,4.664,10.204,10.318,10.192
			c5.672-0.011,10.231-4.597,10.208-10.268C58.322,37.251,53.764,32.738,48.062,32.755z"/>
	</g>
</g>
</svg>
